<svg aria-hidden="true"  version="1.1" xmlns="http://www.w3.org/2000/svg" xmlns:xlink="http://www.w3.org/1999/xlink">
<defs>
<symbol id="icon-instagram-2" viewBox="0 0 32 32" >
<path  d="M31.969 9.408c-0.075-1.7-0.35-2.869-0.744-3.882-0.406-1.075-1.032-2.038-1.851-2.838-0.8-0.813-1.769-1.444-2.832-1.844-1.019-0.394-2.182-0.669-3.882-0.744-1.713-0.081-2.257-0.1-6.601-0.1s-4.888 0.019-6.595 0.094c-1.7 0.075-2.869 0.35-3.882 0.744-1.075 0.406-2.038 1.031-2.838 1.85-0.813 0.8-1.444 1.769-1.844 2.832-0.394 1.019-0.669 2.182-0.744 3.882-0.081 1.713-0.1 2.257-0.1 6.601s0.019 4.888 0.094 6.595c0.075 1.7 0.35 2.869 0.744 3.882 0.406 1.075 1.038 2.038 1.85 2.838 0.8 0.813 1.769 1.444 2.832 1.844 1.019 0.394 2.182 0.669 3.882 0.744 1.706 0.075 2.25 0.094 6.595 0.094s4.888-0.019 6.595-0.094c1.7-0.075 2.869-0.35 3.882-0.744 2.151-0.832 3.851-2.532 4.682-4.682 0.394-1.019 0.669-2.182 0.744-3.882 0.075-1.707 0.094-2.251 0.094-6.595s-0.006-4.888-0.081-6.595zM29.087 22.473c-0.069 1.563-0.331 2.407-0.55 2.969-0.538 1.394-1.644 2.5-3.038 3.038-0.563 0.219-1.413 0.481-2.969 0.55-1.688 0.075-2.194 0.094-6.464 0.094s-4.782-0.019-6.464-0.094c-1.563-0.069-2.407-0.331-2.969-0.55-0.694-0.256-1.325-0.663-1.838-1.194-0.531-0.519-0.938-1.144-1.194-1.838-0.219-0.563-0.481-1.413-0.55-2.969-0.075-1.688-0.094-2.194-0.094-6.464s0.019-4.782 0.094-6.464c0.069-1.563 0.331-2.407 0.55-2.969 0.256-0.694 0.663-1.325 1.2-1.838 0.519-0.531 1.144-0.938 1.838-1.194 0.563-0.219 1.413-0.481 2.969-0.55 1.688-0.075 2.194-0.094 6.464-0.094 4.276 0 4.782 0.019 6.464 0.094 1.563 0.069 2.407 0.331 2.969 0.55 0.694 0.256 1.325 0.662 1.838 1.194 0.531 0.519 0.938 1.144 1.194 1.838 0.219 0.563 0.481 1.413 0.55 2.969 0.075 1.688 0.094 2.194 0.094 6.464s-0.019 4.77-0.094 6.458z"></path>
<path  d="M16.059 7.783c-4.538 0-8.22 3.682-8.22 8.22s3.682 8.22 8.22 8.22c4.539 0 8.22-3.682 8.22-8.22s-3.682-8.22-8.22-8.22zM16.059 21.335c-2.944 0-5.332-2.388-5.332-5.332s2.388-5.332 5.332-5.332c2.944 0 5.332 2.388 5.332 5.332s-2.388 5.332-5.332 5.332z"></path>
<path   d="M26.524 7.458c0 1.060-0.859 1.919-1.919 1.919s-1.919-0.859-1.919-1.919c0-1.060 0.859-1.919 1.919-1.919s1.919 0.859 1.919 1.919z"></path>
</symbol>
<symbol id="icon-facebook-1" viewBox="0 0 32 32">
<path class="icon"  d="M21.329 5.313h2.921v-5.088c-0.504-0.069-2.237-0.225-4.256-0.225-4.212 0-7.097 2.649-7.097 7.519v4.481h-4.648v5.688h4.648v14.312h5.699v-14.311h4.46l0.708-5.688h-5.169v-3.919c0.001-1.644 0.444-2.769 2.735-2.769z"></path>
</symbol>
<symbol id="icon-kCWEAV5XaoMTzY44T0WtJuB5LA" viewBox="0 0 32 32">
<path fill="#fefefe" style="#fefefe" d="M22.547 6.695h0.25l0.234 0.031 0.344 0.172 0.156 0.109 0.063 0.078 0.031 0.016v0.031l0.063 0.031 0.469 0.469 0.078 0.094 0.031 0.016v0.031l0.063 0.031 0.188 0.203 0.094 0.078 0.109 0.125 0.203 0.188 0.563 0.563 0.109 0.125 0.094 0.078 0.109 0.125 0.188 0.172 2.156 2.156 0.078 0.063 0.109 0.125 0.891 0.891 0.047 0.031v0.031h0.031l0.109 0.125 0.203 0.203 0.125 0.109 0.109 0.125 0.156 0.156 0.141 0.125 0.156 0.156 0.141 0.156 0.125 0.109 1.094 1.094 0.141 0.203 0.125 0.25 0.031 0.078 0.031 0.281 0.016 0.109-0.031 0.172-0.031 0.203-0.125 0.25-0.063 0.094h-0.031l-0.031 0.094-0.203 0.188-0.125 0.125h-0.031l-0.031 0.063-0.219 0.234-0.156 0.141-0.219 0.219-0.047 0.016-0.031 0.063-0.063 0.078-0.125 0.109-0.219 0.219-0.047 0.016-0.031 0.063-0.359 0.359-0.203 0.188-0.109 0.125-0.125 0.109-0.266 0.266-0.094 0.109-0.125 0.109-0.625 0.625-0.078 0.094-0.125 0.109-0.109 0.125-0.125 0.109-1.188 1.188h-0.031l-0.031 0.063-0.719 0.719h-0.031v0.031l-1.281 1.281-0.078 0.063-0.109 0.125-0.656 0.656-0.125 0.109-0.109 0.094-0.172 0.109-0.219 0.109-0.344 0.047h-0.141l-0.031-0.016-0.25-0.031-0.219-0.109-0.172-0.109-0.203-0.172-0.125-0.156-0.078-0.125-0.125-0.313-0.031-0.141v-0.266l0.031-0.172 0.141-0.344 0.094-0.156 0.125-0.125 0.109-0.125 0.375-0.375 0.078-0.063 0.109-0.125 0.078-0.078 0.063-0.031 0.031-0.063 0.438-0.438h0.031l0.031-0.063 0.172-0.172 0.125-0.109 0.109-0.125 0.125-0.109 0.125-0.141 0.125-0.109 0.109-0.125 0.125-0.109 0.141-0.141 0.078-0.094 0.125-0.109 0.266-0.266 0.109-0.125 0.125-0.109 0.109-0.125 0.125-0.109 2.203-2.203 0.078-0.094h-25.922l-0.359-0.031-0.25-0.063-0.156-0.063-0.172-0.094-0.234-0.219-0.125-0.156-0.125-0.234-0.047-0.125-0.031-0.203-0.016-0.016v-0.281l0.031-0.078 0.063-0.25 0.141-0.266 0.109-0.141 0.125-0.125 0.156-0.125 0.219-0.109 0.406-0.094 26.188-0.016-0.094-0.109-0.703-0.703-0.125-0.109-0.375-0.375-0.109-0.094-0.109-0.125-0.141-0.125-0.109-0.125-0.109-0.094-0.109-0.125-0.188-0.203-0.125-0.109-0.328-0.328-0.109-0.094-0.109-0.125-0.141-0.125-0.109-0.125-0.125-0.109-0.141-0.156-0.344-0.344-0.109-0.094-0.109-0.125-0.266-0.266-0.109-0.094-0.109-0.125-0.203-0.188-0.078-0.094-0.125-0.109-0.219-0.234-0.234-0.234-0.125-0.109-0.125-0.141-0.125-0.109-0.188-0.203-0.109-0.156-0.063-0.141-0.078-0.188-0.031-0.141v-0.344l0.031-0.156 0.078-0.188 0.094-0.188 0.125-0.172 0.156-0.156 0.203-0.125 0.219-0.125 0.031-0.016z"></path>
</symbol>
<symbol id="icon-tiktok-svgrepo-com" viewBox="0 0 32 32">
<path d="M26.119 8.915c-2.714-0.596-4.759-2.855-5.025-5.634l-0.002-0.026v-0.588h-4.593v18.229c-0.008 2.127-1.734 3.848-3.861 3.848-1.25 0-2.361-0.594-3.067-1.514l-0.007-0.009c-0.491-0.641-0.786-1.453-0.786-2.335 0-2.132 1.728-3.86 3.86-3.86 0.418 0 0.821 0.066 1.198 0.189l-0.027-0.008v-4.667c-0.347-0.051-0.748-0.079-1.156-0.079-4.661 0-8.439 3.778-8.439 8.439 0 2.296 0.917 4.377 2.404 5.898l-0.002-0.002c1.534 1.568 3.671 2.541 6.036 2.541 4.661 0 8.44-3.778 8.44-8.439v-9.315c1.761 1.272 3.964 2.035 6.345 2.035 0.007 0 0.014 0 0.020-0h-0.001v-4.564c-0.002 0-0.005 0-0.008 0-0.471 0-0.93-0.050-1.372-0.146l0.042 0.008z"></path>
</symbol>
<symbol id="icon-icons8-tiktok" viewBox="0 0 32 32">
<path d="M5.76 2.56c-1.76 0-3.2 1.44-3.2 3.2v20.48c0 1.76 1.44 3.2 3.2 3.2h20.48c1.76 0 3.2-1.44 3.2-3.2v-20.48c0-1.76-1.44-3.2-3.2-3.2h-20.48zM5.76 3.84h20.48c1.070 0 1.92 0.85 1.92 1.92v20.48c0 1.070-0.85 1.92-1.92 1.92h-20.48c-1.070 0-1.92-0.85-1.92-1.92v-20.48c0-1.070 0.85-1.92 1.92-1.92zM16.668 6.4c-0.353 0-0.639 0.286-0.64 0.639v0c0 0-0.007 3.12-0.014 6.247-0.003 1.564-0.007 3.129-0.010 4.308s-0.004 1.924-0.004 1.986c0 1.162-1.055 2.111-2.258 2.111-1.193 0-2.145-0.953-2.145-2.146s0.952-2.145 2.145-2.145c0.040 0 0.122 0.013 0.261 0.030 0.023 0.003 0.049 0.005 0.076 0.005 0.354 0 0.64-0.287 0.64-0.64 0-0 0-0.001 0-0.001v0-2.689c-0-0.339-0.264-0.617-0.598-0.639l-0.002-0c-0.1-0.006-0.225-0.019-0.377-0.019-3.36 0-6.098 2.738-6.098 6.098s2.738 6.098 6.098 6.098c3.36 0 6.098-2.738 6.098-6.098v-5.791c0.931 0.745 2.091 1.216 3.372 1.216 0.175 0 0.341-0.010 0.5-0.025 0.327-0.031 0.581-0.305 0.581-0.637 0-0 0-0 0-0v0-2.989c0-0 0-0 0-0 0-0.337-0.261-0.614-0.592-0.638l-0.002-0c-2.013-0.144-3.617-1.712-3.826-3.706-0.035-0.324-0.306-0.574-0.636-0.574h-2.57zM17.306 7.68h1.46c0.465 2.111 2.115 3.721 4.247 4.125v1.834c-1.369-0.069-2.571-0.752-3.279-1.829-0.116-0.175-0.312-0.289-0.535-0.289-0.354 0-0.64 0.287-0.64 0.64 0 0 0 0.001 0 0.001v-0 7.383c0 2.668-2.15 4.817-4.817 4.817s-4.817-2.15-4.817-4.817c0-2.56 1.997-4.593 4.515-4.756v1.393c-1.737 0.162-3.123 1.587-3.123 3.364 0 1.884 1.541 3.426 3.425 3.426 1.875 0 3.538-1.476 3.538-3.391 0 0.031 0.001-0.805 0.004-1.984s0.007-2.744 0.010-4.308c0.006-2.808 0.011-5.065 0.012-5.609z"></path>
</symbol>
</defs>
</svg>
