<svg aria-hidden="true" style="position: absolute; width: 0; height: 0; overflow: hidden;" version="1.1" xmlns="http://www.w3.org/2000/svg" xmlns:xlink="http://www.w3.org/1999/xlink">
<defs>
<symbol id="icon-tiktok-svgrepo-com" viewBox="0 0 32 32">
<path d="M26.119 8.915c-2.714-0.596-4.759-2.855-5.025-5.634l-0.002-0.026v-0.588h-4.593v18.229c-0.008 2.127-1.734 3.848-3.861 3.848-1.25 0-2.361-0.594-3.067-1.514l-0.007-0.009c-0.491-0.641-0.786-1.453-0.786-2.335 0-2.132 1.728-3.86 3.86-3.86 0.418 0 0.821 0.066 1.198 0.189l-0.027-0.008v-4.667c-0.347-0.051-0.748-0.079-1.156-0.079-4.661 0-8.439 3.778-8.439 8.439 0 2.296 0.917 4.377 2.404 5.898l-0.002-0.002c1.534 1.568 3.671 2.541 6.036 2.541 4.661 0 8.44-3.778 8.44-8.439v-9.315c1.761 1.272 3.964 2.035 6.345 2.035 0.007 0 0.014 0 0.020-0h-0.001v-4.564c-0.002 0-0.005 0-0.008 0-0.471 0-0.93-0.050-1.372-0.146l0.042 0.008z"></path>
</symbol>
</defs>
</svg>
