<svg aria-hidden="true"  version="1.1" xmlns="http://www.w3.org/2000/svg" xmlns:xlink="http://www.w3.org/1999/xlink">
<defs>
<symbol id="icon-instagram-2" viewBox="0 0 32 32" >
<path  d="M31.969 9.408c-0.075-1.7-0.35-2.869-0.744-3.882-0.406-1.075-1.032-2.038-1.851-2.838-0.8-0.813-1.769-1.444-2.832-1.844-1.019-0.394-2.182-0.669-3.882-0.744-1.713-0.081-2.257-0.1-6.601-0.1s-4.888 0.019-6.595 0.094c-1.7 0.075-2.869 0.35-3.882 0.744-1.075 0.406-2.038 1.031-2.838 1.85-0.813 0.8-1.444 1.769-1.844 2.832-0.394 1.019-0.669 2.182-0.744 3.882-0.081 1.713-0.1 2.257-0.1 6.601s0.019 4.888 0.094 6.595c0.075 1.7 0.35 2.869 0.744 3.882 0.406 1.075 1.038 2.038 1.85 2.838 0.8 0.813 1.769 1.444 2.832 1.844 1.019 0.394 2.182 0.669 3.882 0.744 1.706 0.075 2.25 0.094 6.595 0.094s4.888-0.019 6.595-0.094c1.7-0.075 2.869-0.35 3.882-0.744 2.151-0.832 3.851-2.532 4.682-4.682 0.394-1.019 0.669-2.182 0.744-3.882 0.075-1.707 0.094-2.251 0.094-6.595s-0.006-4.888-0.081-6.595zM29.087 22.473c-0.069 1.563-0.331 2.407-0.55 2.969-0.538 1.394-1.644 2.5-3.038 3.038-0.563 0.219-1.413 0.481-2.969 0.55-1.688 0.075-2.194 0.094-6.464 0.094s-4.782-0.019-6.464-0.094c-1.563-0.069-2.407-0.331-2.969-0.55-0.694-0.256-1.325-0.663-1.838-1.194-0.531-0.519-0.938-1.144-1.194-1.838-0.219-0.563-0.481-1.413-0.55-2.969-0.075-1.688-0.094-2.194-0.094-6.464s0.019-4.782 0.094-6.464c0.069-1.563 0.331-2.407 0.55-2.969 0.256-0.694 0.663-1.325 1.2-1.838 0.519-0.531 1.144-0.938 1.838-1.194 0.563-0.219 1.413-0.481 2.969-0.55 1.688-0.075 2.194-0.094 6.464-0.094 4.276 0 4.782 0.019 6.464 0.094 1.563 0.069 2.407 0.331 2.969 0.55 0.694 0.256 1.325 0.662 1.838 1.194 0.531 0.519 0.938 1.144 1.194 1.838 0.219 0.563 0.481 1.413 0.55 2.969 0.075 1.688 0.094 2.194 0.094 6.464s-0.019 4.77-0.094 6.458z"></path>
<path  d="M16.059 7.783c-4.538 0-8.22 3.682-8.22 8.22s3.682 8.22 8.22 8.22c4.539 0 8.22-3.682 8.22-8.22s-3.682-8.22-8.22-8.22zM16.059 21.335c-2.944 0-5.332-2.388-5.332-5.332s2.388-5.332 5.332-5.332c2.944 0 5.332 2.388 5.332 5.332s-2.388 5.332-5.332 5.332z"></path>
<path   d="M26.524 7.458c0 1.060-0.859 1.919-1.919 1.919s-1.919-0.859-1.919-1.919c0-1.060 0.859-1.919 1.919-1.919s1.919 0.859 1.919 1.919z"></path>
</symbol>
<symbol id="icon-facebook-1" viewBox="0 0 32 32">
<path class="icon"  d="M21.329 5.313h2.921v-5.088c-0.504-0.069-2.237-0.225-4.256-0.225-4.212 0-7.097 2.649-7.097 7.519v4.481h-4.648v5.688h4.648v14.312h5.699v-14.311h4.46l0.708-5.688h-5.169v-3.919c0.001-1.644 0.444-2.769 2.735-2.769z"></path>
</symbol>
<symbol id="icon-kCWEAV5XaoMTzY44T0WtJuB5LA" viewBox="0 0 32 32">
<path fill="#fefefe" style="#fefefe" d="M22.547 6.695h0.25l0.234 0.031 0.344 0.172 0.156 0.109 0.063 0.078 0.031 0.016v0.031l0.063 0.031 0.469 0.469 0.078 0.094 0.031 0.016v0.031l0.063 0.031 0.188 0.203 0.094 0.078 0.109 0.125 0.203 0.188 0.563 0.563 0.109 0.125 0.094 0.078 0.109 0.125 0.188 0.172 2.156 2.156 0.078 0.063 0.109 0.125 0.891 0.891 0.047 0.031v0.031h0.031l0.109 0.125 0.203 0.203 0.125 0.109 0.109 0.125 0.156 0.156 0.141 0.125 0.156 0.156 0.141 0.156 0.125 0.109 1.094 1.094 0.141 0.203 0.125 0.25 0.031 0.078 0.031 0.281 0.016 0.109-0.031 0.172-0.031 0.203-0.125 0.25-0.063 0.094h-0.031l-0.031 0.094-0.203 0.188-0.125 0.125h-0.031l-0.031 0.063-0.219 0.234-0.156 0.141-0.219 0.219-0.047 0.016-0.031 0.063-0.063 0.078-0.125 0.109-0.219 0.219-0.047 0.016-0.031 0.063-0.359 0.359-0.203 0.188-0.109 0.125-0.125 0.109-0.266 0.266-0.094 0.109-0.125 0.109-0.625 0.625-0.078 0.094-0.125 0.109-0.109 0.125-0.125 0.109-1.188 1.188h-0.031l-0.031 0.063-0.719 0.719h-0.031v0.031l-1.281 1.281-0.078 0.063-0.109 0.125-0.656 0.656-0.125 0.109-0.109 0.094-0.172 0.109-0.219 0.109-0.344 0.047h-0.141l-0.031-0.016-0.25-0.031-0.219-0.109-0.172-0.109-0.203-0.172-0.125-0.156-0.078-0.125-0.125-0.313-0.031-0.141v-0.266l0.031-0.172 0.141-0.344 0.094-0.156 0.125-0.125 0.109-0.125 0.375-0.375 0.078-0.063 0.109-0.125 0.078-0.078 0.063-0.031 0.031-0.063 0.438-0.438h0.031l0.031-0.063 0.172-0.172 0.125-0.109 0.109-0.125 0.125-0.109 0.125-0.141 0.125-0.109 0.109-0.125 0.125-0.109 0.141-0.141 0.078-0.094 0.125-0.109 0.266-0.266 0.109-0.125 0.125-0.109 0.109-0.125 0.125-0.109 2.203-2.203 0.078-0.094h-25.922l-0.359-0.031-0.25-0.063-0.156-0.063-0.172-0.094-0.234-0.219-0.125-0.156-0.125-0.234-0.047-0.125-0.031-0.203-0.016-0.016v-0.281l0.031-0.078 0.063-0.25 0.141-0.266 0.109-0.141 0.125-0.125 0.156-0.125 0.219-0.109 0.406-0.094 26.188-0.016-0.094-0.109-0.703-0.703-0.125-0.109-0.375-0.375-0.109-0.094-0.109-0.125-0.141-0.125-0.109-0.125-0.109-0.094-0.109-0.125-0.188-0.203-0.125-0.109-0.328-0.328-0.109-0.094-0.109-0.125-0.141-0.125-0.109-0.125-0.125-0.109-0.141-0.156-0.344-0.344-0.109-0.094-0.109-0.125-0.266-0.266-0.109-0.094-0.109-0.125-0.203-0.188-0.078-0.094-0.125-0.109-0.219-0.234-0.234-0.234-0.125-0.109-0.125-0.141-0.125-0.109-0.188-0.203-0.109-0.156-0.063-0.141-0.078-0.188-0.031-0.141v-0.344l0.031-0.156 0.078-0.188 0.094-0.188 0.125-0.172 0.156-0.156 0.203-0.125 0.219-0.125 0.031-0.016z"></path>
</symbol>
</defs>
</svg>
